<?xml version="1.0" encoding="UTF-8" standalone="no"?>
<!DOCTYPE svg PUBLIC "-//W3C//DTD SVG 1.1//EN"
 "http://www.w3.org/Graphics/SVG/1.1/DTD/svg11.dtd">
<!-- Generated by graphviz version 2.43.0 (0)
 -->
<!-- Title: G Pages: 1 -->
<svg width="946pt" height="637pt"
 viewBox="0.00 0.00 945.70 636.50" xmlns="http://www.w3.org/2000/svg" xmlns:xlink="http://www.w3.org/1999/xlink">
<g id="graph0" class="graph" transform="scale(1 1) rotate(0) translate(4 632.5)">
<title>G</title><style>.edge>path:hover{stroke-width:8}</style>
<polygon fill="white" stroke="transparent" points="-4,4 -4,-632.5 941.7,-632.5 941.7,4 -4,4"/>
<!-- farama_notifications -->
<g id="node1" class="node">
<title>farama_notifications</title><style>.edge>path:hover{stroke-width:8}</style>
<ellipse fill="#b65353" stroke="black" cx="844.36" cy="-209.99" rx="68.75" ry="18"/>
<text text-anchor="middle" x="844.36" y="-207.49" font-family="Helvetica,sans-Serif" font-size="10.00" fill="#ffffff">farama_notifications</text>
</g>
<!-- gymnasium -->
<g id="node2" class="node">
<title>gymnasium</title><style>.edge>path:hover{stroke-width:8}</style>
<polygon fill="blue" stroke="black" points="556.36,-145 482.36,-145 482.36,-109 556.36,-109 556.36,-145"/>
<text text-anchor="middle" x="519.36" y="-124.5" font-family="Helvetica,sans-Serif" font-size="10.00" fill="white">gymnasium</text>
</g>
<!-- farama_notifications&#45;&gt;gymnasium -->
<g id="edge1" class="edge">
<title>farama_notifications&#45;&gt;gymnasium</title><style>.edge>path:hover{stroke-width:8}</style>
<path fill="none" stroke="black" d="M807.88,-194.56C795.18,-189.85 780.75,-184.85 767.36,-181 698.47,-161.22 616.91,-145.17 566.65,-136.1"/>
<polygon fill="#b65353" stroke="black" points="567.18,-132.64 556.72,-134.32 565.95,-139.53 567.18,-132.64"/>
</g>
<!-- play_py -->
<g id="node14" class="node">
<title>play_py</title><style>.edge>path:hover{stroke-width:8}</style>
<ellipse fill="#478560" stroke="black" cx="239.36" cy="-18" rx="30.04" ry="18"/>
<text text-anchor="middle" x="239.36" y="-15.5" font-family="Helvetica,sans-Serif" font-size="10.00" fill="#ffffff">play.py</text>
</g>
<!-- gymnasium&#45;&gt;play_py -->
<g id="edge2" class="edge">
<title>gymnasium&#45;&gt;play_py</title><style>.edge>path:hover{stroke-width:8}</style>
<path fill="none" stroke="black" d="M482.28,-122.58C407.55,-115.22 245.41,-96.57 239.36,-73"/>
</g>
<!-- gymnasium_core -->
<g id="node3" class="node">
<title>gymnasium_core</title><style>.edge>path:hover{stroke-width:8}</style>
<polygon fill="blue" stroke="black" points="491.36,-227.99 393.36,-227.99 393.36,-191.99 491.36,-191.99 491.36,-227.99"/>
<text text-anchor="middle" x="442.36" y="-207.49" font-family="Helvetica,sans-Serif" font-size="10.00" fill="white">gymnasium.core</text>
</g>
<!-- gymnasium_core&#45;&gt;gymnasium -->
<g id="edge3" class="edge">
<title>gymnasium_core&#45;&gt;gymnasium</title><style>.edge>path:hover{stroke-width:8}</style>
<path fill="none" stroke="black" d="M458.69,-191.82C469.51,-180.43 483.87,-165.32 495.91,-152.66"/>
<polygon fill="blue" stroke="black" points="498.7,-154.81 503.05,-145.15 493.62,-149.99 498.7,-154.81"/>
</g>
<!-- gymnasium_envs -->
<g id="node4" class="node">
<title>gymnasium_envs</title><style>.edge>path:hover{stroke-width:8}</style>
<polygon fill="blue" stroke="black" points="724.86,-337.53 623.86,-337.53 623.86,-301.53 724.86,-301.53 724.86,-337.53"/>
<text text-anchor="middle" x="674.36" y="-317.03" font-family="Helvetica,sans-Serif" font-size="10.00" fill="white">gymnasium.envs</text>
</g>
<!-- gymnasium_envs&#45;&gt;gymnasium -->
<g id="edge4" class="edge">
<title>gymnasium_envs&#45;&gt;gymnasium</title><style>.edge>path:hover{stroke-width:8}</style>
<path fill="none" stroke="black" d="M650.42,-301.48C638.33,-293.14 623.3,-283.15 609.36,-274.98 578.83,-257.1 559.36,-267.45 538.36,-238.98 520.54,-214.84 517.26,-179.75 517.49,-155.52"/>
<polygon fill="blue" stroke="black" points="520.99,-155.33 517.8,-145.23 514,-155.12 520.99,-155.33"/>
</g>
<!-- gymnasium_envs&#45;&gt;gymnasium_core -->
<g id="edge5" class="edge">
<title>gymnasium_envs&#45;&gt;gymnasium_core</title><style>.edge>path:hover{stroke-width:8}</style>
<path fill="none" stroke="black" d="M652.06,-301.51C639.9,-292.77 624.31,-282.43 609.36,-274.98 565.56,-253.19 550.86,-256.93 505.36,-238.98 499.93,-236.84 494.3,-234.51 488.72,-232.12"/>
<polygon fill="blue" stroke="black" points="490.01,-228.87 479.44,-228.1 487.22,-235.29 490.01,-228.87"/>
</g>
<!-- gymnasium_envs_registration -->
<g id="node5" class="node">
<title>gymnasium_envs_registration</title><style>.edge>path:hover{stroke-width:8}</style>
<polygon fill="blue" stroke="black" points="712.86,-441.08 635.86,-441.08 635.86,-400.08 712.86,-400.08 712.86,-441.08"/>
<text text-anchor="middle" x="674.36" y="-429.08" font-family="Helvetica,sans-Serif" font-size="10.00" fill="white">gymnasium.</text>
<text text-anchor="middle" x="674.36" y="-418.08" font-family="Helvetica,sans-Serif" font-size="10.00" fill="white">envs.</text>
<text text-anchor="middle" x="674.36" y="-407.08" font-family="Helvetica,sans-Serif" font-size="10.00" fill="white">registration</text>
</g>
<!-- gymnasium_envs_registration&#45;&gt;gymnasium -->
<g id="edge6" class="edge">
<title>gymnasium_envs_registration&#45;&gt;gymnasium</title><style>.edge>path:hover{stroke-width:8}</style>
<path fill="none" stroke="black" d="M713.05,-409.45C756.22,-396.17 825.12,-368.69 864.36,-320.53"/>
<path fill="none" stroke="black" d="M864.36,-318.53C906.26,-267.1 966.1,-230.87 922.36,-181 899.18,-154.58 668.06,-137.19 566.65,-130.77"/>
<polygon fill="blue" stroke="black" points="566.58,-127.26 556.38,-130.13 566.14,-134.24 566.58,-127.26"/>
</g>
<!-- gymnasium_envs_registration&#45;&gt;gymnasium_core -->
<g id="edge7" class="edge">
<title>gymnasium_envs_registration&#45;&gt;gymnasium_core</title><style>.edge>path:hover{stroke-width:8}</style>
<path fill="none" stroke="black" d="M649.56,-400.08C638.11,-390.18 624.96,-377.44 615.36,-364.08 602.92,-346.78 608.43,-337.34 595.36,-320.53"/>
</g>
<!-- gymnasium_envs_registration&#45;&gt;gymnasium_envs -->
<g id="edge8" class="edge">
<title>gymnasium_envs_registration&#45;&gt;gymnasium_envs</title><style>.edge>path:hover{stroke-width:8}</style>
<path fill="none" stroke="black" d="M674.36,-400.01C674.36,-385.12 674.36,-364.44 674.36,-347.91"/>
<polygon fill="blue" stroke="black" points="677.86,-347.74 674.36,-337.74 670.86,-347.74 677.86,-347.74"/>
</g>
<!-- gymnasium_error -->
<g id="node6" class="node">
<title>gymnasium_error</title><style>.edge>path:hover{stroke-width:8}</style>
<ellipse fill="#a9c247" stroke="black" cx="753.36" cy="-535.29" rx="54.39" ry="21.43"/>
<text text-anchor="middle" x="753.36" y="-538.29" font-family="Helvetica,sans-Serif" font-size="10.00" fill="#000000">gymnasium.</text>
<text text-anchor="middle" x="753.36" y="-527.29" font-family="Helvetica,sans-Serif" font-size="10.00" fill="#000000">error</text>
</g>
<!-- gymnasium_error&#45;&gt;gymnasium -->
<g id="edge9" class="edge">
<title>gymnasium_error&#45;&gt;gymnasium</title><style>.edge>path:hover{stroke-width:8}</style>
<path fill="none" stroke="black" d="M792.76,-520.64C822.22,-509.38 858.38,-492.91 864.36,-478.08"/>
<path fill="none" stroke="black" d="M864.36,-477.08C890.35,-412.54 822.52,-376.13 864.36,-320.53"/>
</g>
<!-- gymnasium_error&#45;&gt;gymnasium_envs_registration -->
<g id="edge10" class="edge">
<title>gymnasium_error&#45;&gt;gymnasium_envs_registration</title><style>.edge>path:hover{stroke-width:8}</style>
<path fill="none" stroke="black" d="M755.12,-513.84C755.61,-503.1 755.51,-489.79 753.36,-478.08"/>
</g>
<!-- gymnasium_experimental -->
<g id="node7" class="node">
<title>gymnasium_experimental</title><style>.edge>path:hover{stroke-width:8}</style>
<ellipse fill="#a2b653" stroke="black" cx="605.36" cy="-209.99" rx="57.97" ry="21.43"/>
<text text-anchor="middle" x="605.36" y="-212.99" font-family="Helvetica,sans-Serif" font-size="10.00" fill="#000000">gymnasium.</text>
<text text-anchor="middle" x="605.36" y="-201.99" font-family="Helvetica,sans-Serif" font-size="10.00" fill="#000000">experimental</text>
</g>
<!-- gymnasium_experimental&#45;&gt;gymnasium -->
<g id="edge11" class="edge">
<title>gymnasium_experimental&#45;&gt;gymnasium</title><style>.edge>path:hover{stroke-width:8}</style>
<path fill="none" stroke="black" d="M584.97,-189.8C573.05,-178.56 557.87,-164.27 545.12,-152.26"/>
<polygon fill="#a2b653" stroke="black" points="547.22,-149.44 537.54,-145.13 542.42,-154.53 547.22,-149.44"/>
</g>
<!-- gymnasium_logger -->
<g id="node8" class="node">
<title>gymnasium_logger</title><style>.edge>path:hover{stroke-width:8}</style>
<polygon fill="blue" stroke="black" points="902.86,-553.29 825.86,-553.29 825.86,-517.29 902.86,-517.29 902.86,-553.29"/>
<text text-anchor="middle" x="864.36" y="-538.29" font-family="Helvetica,sans-Serif" font-size="10.00" fill="white">gymnasium.</text>
<text text-anchor="middle" x="864.36" y="-527.29" font-family="Helvetica,sans-Serif" font-size="10.00" fill="white">logger</text>
</g>
<!-- gymnasium_logger&#45;&gt;gymnasium -->
<g id="edge12" class="edge">
<title>gymnasium_logger&#45;&gt;gymnasium</title><style>.edge>path:hover{stroke-width:8}</style>
<path fill="none" stroke="black" d="M861.09,-516.93C859.71,-505.48 859.4,-490.39 864.36,-478.08"/>
</g>
<!-- gymnasium_logger&#45;&gt;gymnasium_envs_registration -->
<g id="edge13" class="edge">
<title>gymnasium_logger&#45;&gt;gymnasium_envs_registration</title><style>.edge>path:hover{stroke-width:8}</style>
<path fill="none" stroke="black" d="M827.12,-517.16C795.17,-502.19 754.12,-482.22 753.36,-478.08"/>
</g>
<!-- gymnasium_spaces -->
<g id="node9" class="node">
<title>gymnasium_spaces</title><style>.edge>path:hover{stroke-width:8}</style>
<polygon fill="blue" stroke="black" points="470.86,-337.53 393.86,-337.53 393.86,-301.53 470.86,-301.53 470.86,-337.53"/>
<text text-anchor="middle" x="432.36" y="-322.53" font-family="Helvetica,sans-Serif" font-size="10.00" fill="white">gymnasium.</text>
<text text-anchor="middle" x="432.36" y="-311.53" font-family="Helvetica,sans-Serif" font-size="10.00" fill="white">spaces</text>
</g>
<!-- gymnasium_spaces&#45;&gt;gymnasium -->
<g id="edge14" class="edge">
<title>gymnasium_spaces&#45;&gt;gymnasium</title><style>.edge>path:hover{stroke-width:8}</style>
<path fill="none" stroke="black" d="M410.22,-301.43C387.21,-281.41 355.78,-246.46 365.36,-210.99"/>
</g>
<!-- gymnasium_spaces&#45;&gt;gymnasium_core -->
<g id="edge15" class="edge">
<title>gymnasium_spaces&#45;&gt;gymnasium_core</title><style>.edge>path:hover{stroke-width:8}</style>
<path fill="none" stroke="black" d="M433.96,-301.25C435.54,-284.24 437.98,-258 439.83,-238.19"/>
<polygon fill="blue" stroke="black" points="443.31,-238.51 440.75,-228.23 436.34,-237.86 443.31,-238.51"/>
</g>
<!-- gymnasium_spaces_space -->
<g id="node10" class="node">
<title>gymnasium_spaces_space</title><style>.edge>path:hover{stroke-width:8}</style>
<polygon fill="blue" stroke="black" points="470.86,-441.08 393.86,-441.08 393.86,-400.08 470.86,-400.08 470.86,-441.08"/>
<text text-anchor="middle" x="432.36" y="-429.08" font-family="Helvetica,sans-Serif" font-size="10.00" fill="white">gymnasium.</text>
<text text-anchor="middle" x="432.36" y="-418.08" font-family="Helvetica,sans-Serif" font-size="10.00" fill="white">spaces.</text>
<text text-anchor="middle" x="432.36" y="-407.08" font-family="Helvetica,sans-Serif" font-size="10.00" fill="white">space</text>
</g>
<!-- gymnasium_spaces_space&#45;&gt;gymnasium -->
<g id="edge16" class="edge">
<title>gymnasium_spaces_space&#45;&gt;gymnasium</title><style>.edge>path:hover{stroke-width:8}</style>
<path fill="none" stroke="black" d="M410.38,-400.05C400.78,-390.24 390.36,-377.58 384.36,-364.08 356.51,-301.43 347.48,-277.18 365.36,-210.99"/>
<path fill="none" stroke="black" d="M365.36,-208.99C377.34,-163.62 431.48,-143.49 472.21,-134.68"/>
<polygon fill="blue" stroke="black" points="473.12,-138.06 482.24,-132.67 471.75,-131.2 473.12,-138.06"/>
</g>
<!-- gymnasium_spaces_space&#45;&gt;gymnasium_spaces -->
<g id="edge17" class="edge">
<title>gymnasium_spaces_space&#45;&gt;gymnasium_spaces</title><style>.edge>path:hover{stroke-width:8}</style>
<path fill="none" stroke="black" d="M432.36,-400.01C432.36,-385.12 432.36,-364.44 432.36,-347.91"/>
<polygon fill="blue" stroke="black" points="435.86,-347.74 432.36,-337.74 428.86,-347.74 435.86,-347.74"/>
</g>
<!-- gymnasium_utils -->
<g id="node11" class="node">
<title>gymnasium_utils</title><style>.edge>path:hover{stroke-width:8}</style>
<polygon fill="blue" stroke="black" points="633.86,-628.5 556.86,-628.5 556.86,-592.5 633.86,-592.5 633.86,-628.5"/>
<text text-anchor="middle" x="595.36" y="-613.5" font-family="Helvetica,sans-Serif" font-size="10.00" fill="white">gymnasium.</text>
<text text-anchor="middle" x="595.36" y="-602.5" font-family="Helvetica,sans-Serif" font-size="10.00" fill="white">utils</text>
</g>
<!-- gymnasium_utils&#45;&gt;gymnasium -->
<g id="edge18" class="edge">
<title>gymnasium_utils&#45;&gt;gymnasium</title><style>.edge>path:hover{stroke-width:8}</style>
<path fill="none" stroke="black" d="M461.36,-477.08C459.97,-447.22 495.16,-451.18 499.36,-421.58"/>
<path fill="none" stroke="black" d="M499.36,-419.58C508.47,-355.34 519.8,-325.71 479.36,-274.98 443.14,-229.55 350.51,-267.17 365.36,-210.99"/>
</g>
<!-- gymnasium_utils&#45;&gt;gymnasium_core -->
<g id="edge19" class="edge">
<title>gymnasium_utils&#45;&gt;gymnasium_core</title><style>.edge>path:hover{stroke-width:8}</style>
<path fill="none" stroke="black" d="M598.02,-592.14C606.17,-536.37 628.31,-362.9 595.36,-320.53"/>
<path fill="none" stroke="black" d="M595.36,-318.53C564.8,-281.99 519.02,-252.01 485.5,-233.08"/>
<polygon fill="blue" stroke="black" points="486.83,-229.82 476.39,-228.03 483.44,-235.94 486.83,-229.82"/>
</g>
<!-- gymnasium_utils&#45;&gt;gymnasium_logger -->
<g id="edge20" class="edge">
<title>gymnasium_utils&#45;&gt;gymnasium_logger</title><style>.edge>path:hover{stroke-width:8}</style>
<path fill="none" stroke="black" d="M634.21,-602.19C678.78,-593.34 753.75,-577.04 816.36,-556.5 816.45,-556.47 816.55,-556.44 816.65,-556.41"/>
<polygon fill="blue" stroke="black" points="817.53,-559.81 825.79,-553.17 815.19,-553.21 817.53,-559.81"/>
</g>
<!-- gymnasium_utils&#45;&gt;gymnasium_spaces_space -->
<g id="edge21" class="edge">
<title>gymnasium_utils&#45;&gt;gymnasium_spaces_space</title><style>.edge>path:hover{stroke-width:8}</style>
<path fill="none" stroke="black" d="M556.59,-600.96C531.31,-593.41 499.56,-579.85 480.36,-556.5 457.57,-528.81 459.94,-513.91 461.36,-478.08"/>
<path fill="none" stroke="black" d="M461.36,-477.08C460.92,-467.69 457.47,-458.31 453.09,-450.01"/>
<polygon fill="blue" stroke="black" points="455.96,-447.98 447.87,-441.15 449.93,-451.54 455.96,-447.98"/>
</g>
<!-- gymnasium_vector -->
<g id="node12" class="node">
<title>gymnasium_vector</title><style>.edge>path:hover{stroke-width:8}</style>
<polygon fill="blue" stroke="black" points="566.86,-553.29 489.86,-553.29 489.86,-517.29 566.86,-517.29 566.86,-553.29"/>
<text text-anchor="middle" x="528.36" y="-538.29" font-family="Helvetica,sans-Serif" font-size="10.00" fill="white">gymnasium.</text>
<text text-anchor="middle" x="528.36" y="-527.29" font-family="Helvetica,sans-Serif" font-size="10.00" fill="white">vector</text>
</g>
<!-- gymnasium_vector&#45;&gt;gymnasium -->
<g id="edge22" class="edge">
<title>gymnasium_vector&#45;&gt;gymnasium</title><style>.edge>path:hover{stroke-width:8}</style>
<path fill="none" stroke="black" d="M519.24,-516.93C508.79,-494.97 493.79,-455.88 499.36,-421.58"/>
</g>
<!-- gymnasium_vector&#45;&gt;gymnasium_envs_registration -->
<g id="edge23" class="edge">
<title>gymnasium_vector&#45;&gt;gymnasium_envs_registration</title><style>.edge>path:hover{stroke-width:8}</style>
<path fill="none" stroke="black" d="M566.97,-528.64C632.19,-518.57 756.8,-496.81 753.36,-478.08"/>
<path fill="none" stroke="black" d="M753.36,-477.08C750.24,-460.13 736.88,-447.84 722.01,-439.2"/>
<polygon fill="blue" stroke="black" points="723.63,-436.1 713.15,-434.53 720.37,-442.29 723.63,-436.1"/>
</g>
<!-- gymnasium_wrappers -->
<g id="node13" class="node">
<title>gymnasium_wrappers</title><style>.edge>path:hover{stroke-width:8}</style>
<polygon fill="blue" stroke="black" points="757.86,-227.99 680.86,-227.99 680.86,-191.99 757.86,-191.99 757.86,-227.99"/>
<text text-anchor="middle" x="719.36" y="-212.99" font-family="Helvetica,sans-Serif" font-size="10.00" fill="white">gymnasium.</text>
<text text-anchor="middle" x="719.36" y="-201.99" font-family="Helvetica,sans-Serif" font-size="10.00" fill="white">wrappers</text>
</g>
<!-- gymnasium_wrappers&#45;&gt;gymnasium -->
<g id="edge24" class="edge">
<title>gymnasium_wrappers&#45;&gt;gymnasium</title><style>.edge>path:hover{stroke-width:8}</style>
<path fill="none" stroke="black" d="M692.53,-191.74C686.06,-187.94 679.07,-184.12 672.36,-181 637.86,-164.96 597.07,-151.06 566.28,-141.53"/>
<polygon fill="blue" stroke="black" points="567.25,-138.16 556.66,-138.59 565.2,-144.86 567.25,-138.16"/>
</g>
<!-- skrl -->
<g id="node15" class="node">
<title>skrl</title><style>.edge>path:hover{stroke-width:8}</style>
<ellipse fill="#0c68f3" stroke="black" cx="109.36" cy="-127" rx="27" ry="18"/>
<text text-anchor="middle" x="109.36" y="-124.5" font-family="Helvetica,sans-Serif" font-size="10.00" fill="#ffffff">skrl</text>
</g>
<!-- skrl&#45;&gt;play_py -->
<g id="edge25" class="edge">
<title>skrl&#45;&gt;play_py</title><style>.edge>path:hover{stroke-width:8}</style>
<path fill="none" stroke="black" d="M132.6,-117.84C170.38,-104.39 240.78,-78.53 239.36,-73"/>
<path fill="none" stroke="black" d="M239.36,-72C237.23,-63.73 236.64,-54.49 236.76,-46.07"/>
<polygon fill="#0c68f3" stroke="black" points="240.26,-46.13 237.23,-35.98 233.27,-45.81 240.26,-46.13"/>
</g>
<!-- skrl_utils -->
<g id="node16" class="node">
<title>skrl_utils</title><style>.edge>path:hover{stroke-width:8}</style>
<ellipse fill="#196be6" stroke="black" cx="239.36" cy="-127" rx="34.96" ry="18"/>
<text text-anchor="middle" x="239.36" y="-124.5" font-family="Helvetica,sans-Serif" font-size="10.00" fill="#ffffff">skrl.utils</text>
</g>
<!-- skrl_utils&#45;&gt;play_py -->
<g id="edge26" class="edge">
<title>skrl_utils&#45;&gt;play_py</title><style>.edge>path:hover{stroke-width:8}</style>
<path fill="none" stroke="black" d="M241.48,-109.02C242.28,-98.49 242.38,-84.76 239.36,-73"/>
</g>
<!-- skrl_utils_runner -->
<g id="node17" class="node">
<title>skrl_utils_runner</title><style>.edge>path:hover{stroke-width:8}</style>
<ellipse fill="#3b76ce" stroke="black" cx="176.36" cy="-209.99" rx="33.88" ry="28.98"/>
<text text-anchor="middle" x="176.36" y="-218.49" font-family="Helvetica,sans-Serif" font-size="10.00" fill="#ffffff">skrl.</text>
<text text-anchor="middle" x="176.36" y="-207.49" font-family="Helvetica,sans-Serif" font-size="10.00" fill="#ffffff">utils.</text>
<text text-anchor="middle" x="176.36" y="-196.49" font-family="Helvetica,sans-Serif" font-size="10.00" fill="#ffffff">runner</text>
</g>
<!-- skrl_utils_runner&#45;&gt;play_py -->
<g id="edge27" class="edge">
<title>skrl_utils_runner&#45;&gt;play_py</title><style>.edge>path:hover{stroke-width:8}</style>
<path fill="none" stroke="black" d="M176.62,-180.88C177.97,-159.78 182.35,-130.87 195.36,-109 208.27,-87.28 245.65,-97.47 239.36,-73"/>
</g>
<!-- skrl_utils_runner_jax -->
<g id="node18" class="node">
<title>skrl_utils_runner_jax</title><style>.edge>path:hover{stroke-width:8}</style>
<ellipse fill="#3560a1" stroke="black" cx="124.36" cy="-319.53" rx="35.21" ry="36.54"/>
<text text-anchor="middle" x="124.36" y="-333.53" font-family="Helvetica,sans-Serif" font-size="10.00" fill="#ffffff">skrl.</text>
<text text-anchor="middle" x="124.36" y="-322.53" font-family="Helvetica,sans-Serif" font-size="10.00" fill="#ffffff">utils.</text>
<text text-anchor="middle" x="124.36" y="-311.53" font-family="Helvetica,sans-Serif" font-size="10.00" fill="#ffffff">runner.</text>
<text text-anchor="middle" x="124.36" y="-300.53" font-family="Helvetica,sans-Serif" font-size="10.00" fill="#ffffff">jax</text>
</g>
<!-- skrl_utils_runner_jax&#45;&gt;play_py -->
<g id="edge28" class="edge">
<title>skrl_utils_runner_jax&#45;&gt;play_py</title><style>.edge>path:hover{stroke-width:8}</style>
<path fill="none" stroke="black" d="M148.8,-292.13C155.15,-286.07 162.22,-279.96 169.36,-274.98 223.17,-237.47 280.41,-272.81 302.36,-210.99"/>
<path fill="none" stroke="black" d="M302.36,-208.99C317.49,-166.36 306.47,-147.88 283.36,-109 270.44,-87.28 246.08,-97.35 239.36,-73"/>
</g>
<!-- skrl_utils_runner_jax_runner -->
<g id="node19" class="node">
<title>skrl_utils_runner_jax_runner</title><style>.edge>path:hover{stroke-width:8}</style>
<ellipse fill="#4971ac" stroke="black" cx="35.36" cy="-319.53" rx="35.21" ry="44.6"/>
<text text-anchor="middle" x="35.36" y="-339.03" font-family="Helvetica,sans-Serif" font-size="10.00" fill="#ffffff">skrl.</text>
<text text-anchor="middle" x="35.36" y="-328.03" font-family="Helvetica,sans-Serif" font-size="10.00" fill="#ffffff">utils.</text>
<text text-anchor="middle" x="35.36" y="-317.03" font-family="Helvetica,sans-Serif" font-size="10.00" fill="#ffffff">runner.</text>
<text text-anchor="middle" x="35.36" y="-306.03" font-family="Helvetica,sans-Serif" font-size="10.00" fill="#ffffff">jax.</text>
<text text-anchor="middle" x="35.36" y="-295.03" font-family="Helvetica,sans-Serif" font-size="10.00" fill="#ffffff">runner</text>
</g>
<!-- skrl_utils_runner_jax_runner&#45;&gt;skrl_utils_runner_jax -->
<g id="edge29" class="edge">
<title>skrl_utils_runner_jax_runner&#45;&gt;skrl_utils_runner_jax</title><style>.edge>path:hover{stroke-width:8}</style>
<path fill="none" stroke="black" d="M70.82,-319.53C73.44,-319.53 76.06,-319.53 78.69,-319.53"/>
<polygon fill="#4971ac" stroke="black" points="78.8,-323.03 88.8,-319.53 78.8,-316.03 78.8,-323.03"/>
</g>
<!-- skrl_utils_runner_torch -->
<g id="node20" class="node">
<title>skrl_utils_runner_torch</title><style>.edge>path:hover{stroke-width:8}</style>
<ellipse fill="#3560a1" stroke="black" cx="302.36" cy="-319.53" rx="35.21" ry="36.54"/>
<text text-anchor="middle" x="302.36" y="-333.53" font-family="Helvetica,sans-Serif" font-size="10.00" fill="#ffffff">skrl.</text>
<text text-anchor="middle" x="302.36" y="-322.53" font-family="Helvetica,sans-Serif" font-size="10.00" fill="#ffffff">utils.</text>
<text text-anchor="middle" x="302.36" y="-311.53" font-family="Helvetica,sans-Serif" font-size="10.00" fill="#ffffff">runner.</text>
<text text-anchor="middle" x="302.36" y="-300.53" font-family="Helvetica,sans-Serif" font-size="10.00" fill="#ffffff">torch</text>
</g>
<!-- skrl_utils_runner_torch&#45;&gt;play_py -->
<g id="edge30" class="edge">
<title>skrl_utils_runner_torch&#45;&gt;play_py</title><style>.edge>path:hover{stroke-width:8}</style>
<path fill="none" stroke="black" d="M296.5,-283.14C294.36,-261.66 294.17,-234.04 302.36,-210.99"/>
</g>
<!-- skrl_utils_runner_torch_runner -->
<g id="node21" class="node">
<title>skrl_utils_runner_torch_runner</title><style>.edge>path:hover{stroke-width:8}</style>
<ellipse fill="#4971ac" stroke="black" cx="213.36" cy="-319.53" rx="35.21" ry="44.6"/>
<text text-anchor="middle" x="213.36" y="-339.03" font-family="Helvetica,sans-Serif" font-size="10.00" fill="#ffffff">skrl.</text>
<text text-anchor="middle" x="213.36" y="-328.03" font-family="Helvetica,sans-Serif" font-size="10.00" fill="#ffffff">utils.</text>
<text text-anchor="middle" x="213.36" y="-317.03" font-family="Helvetica,sans-Serif" font-size="10.00" fill="#ffffff">runner.</text>
<text text-anchor="middle" x="213.36" y="-306.03" font-family="Helvetica,sans-Serif" font-size="10.00" fill="#ffffff">torch.</text>
<text text-anchor="middle" x="213.36" y="-295.03" font-family="Helvetica,sans-Serif" font-size="10.00" fill="#ffffff">runner</text>
</g>
<!-- skrl_utils_runner_torch_runner&#45;&gt;skrl_utils_runner_torch -->
<g id="edge31" class="edge">
<title>skrl_utils_runner_torch_runner&#45;&gt;skrl_utils_runner_torch</title><style>.edge>path:hover{stroke-width:8}</style>
<path fill="none" stroke="black" d="M248.82,-319.53C251.44,-319.53 254.06,-319.53 256.69,-319.53"/>
<polygon fill="#4971ac" stroke="black" points="256.8,-323.03 266.8,-319.53 256.8,-316.03 256.8,-323.03"/>
</g>
<!-- warp -->
<g id="node22" class="node">
<title>warp</title><style>.edge>path:hover{stroke-width:8}</style>
<ellipse fill="#a640c0" stroke="black" cx="97.36" cy="-209.99" rx="27" ry="18"/>
<text text-anchor="middle" x="97.36" y="-207.49" font-family="Helvetica,sans-Serif" font-size="10.00" fill="#ffffff">warp</text>
</g>
<!-- warp&#45;&gt;skrl -->
<g id="edge32" class="edge">
<title>warp&#45;&gt;skrl</title><style>.edge>path:hover{stroke-width:8}</style>
<path fill="none" stroke="black" d="M99.9,-191.82C101.48,-181.18 103.53,-167.3 105.33,-155.2"/>
<polygon fill="#a640c0" stroke="black" points="108.81,-155.56 106.81,-145.15 101.89,-154.53 108.81,-155.56"/>
</g>
</g>
</svg>
